#N canvas 496 349 694 537 10;
#X obj 243 59 gemwin;
#X msg 243 37 create \, 1;
#X obj 366 211 square;
#X obj 242 115 metro 1000;
#X obj 242 95 tgl 15 0 empty empty empty 17 7 0 10 -262144 -1 -1 0
1;
#X obj 366 80 gemframebuffer;
#X obj 366 179 color 0 1 0;
#X obj 242 138 t b b;
#X obj 242 179 delay 500;
#X msg 242 214 color 1 0 0;
#X obj 366 50 gemhead 2;
#X obj 378 126 gemhead 1;
#X msg 268 159 color 0 0 0;
#X obj 476 103 gl_ndisender;
#X obj 367 150 translateXYZ 2 2 -4;
#X obj 366 104 scaleXYZ 1 -1 1;
#X obj 367 26 tgl 15 0 empty empty empty 17 7 0 10 -262144 -1 -1 0
1;
#X msg 438 53 dimen 640 480;
#X msg 560 56 fps 30;
#X msg 561 32 fps 60;
#X obj 9 8 cnv 15 220 340 empty empty empty 20 12 0 14 -233017 -66577
0;
#X text 11 94 Arguments:;
#X text 13 123 Inlets:;
#X text 15 287 Outlets:;
#X text 27 156 Inlet 1: fps <fps>: sets desired fps count for gl_ndisender
, f 31;
#X text 26 198 Inlet 1: message: dimen <w> <h>: sets width and height
of NDI frame, f 31;
#X text 25 243 Inlet 1: bang: sends 30 test frames, f 31;
#X text 242 11 Example;
#X text 14 13 [gl_ndisender];
#X text 27 137 Inlet 1: texture <id>;
#X text 18 34 Performs data capture from given GL_TEXTURE_2D and broadcasting
over NDI source named 'pd'., f 34;
#X connect 1 0 0 0;
#X connect 3 0 7 0;
#X connect 4 0 3 0;
#X connect 5 0 15 0;
#X connect 5 1 13 0;
#X connect 6 0 2 0;
#X connect 7 0 8 0;
#X connect 7 1 12 0;
#X connect 8 0 9 0;
#X connect 9 0 6 0;
#X connect 10 0 5 0;
#X connect 11 0 14 0;
#X connect 12 0 6 0;
#X connect 14 0 6 0;
#X connect 15 0 14 0;
#X connect 16 0 10 0;
#X connect 17 0 13 0;
#X connect 17 0 5 0;
#X connect 18 0 13 0;
#X connect 19 0 13 0;
