#N canvas 264 686 472 282 10;
#X obj 45 35 gemwin;
#X msg 45 13 create \, 1;
#X obj 168 187 square;
#X obj 44 91 metro 1000;
#X obj 44 71 tgl 15 0 empty empty empty 17 7 0 10 -262144 -1 -1 0 1
;
#X obj 168 56 gemframebuffer;
#X obj 168 120 translateXYZ 0 0 -4;
#X obj 168 155 color 0 1 0;
#X obj 44 114 t b b;
#X obj 44 155 delay 500;
#X msg 44 190 color 1 0 0;
#X obj 168 26 gemhead 2;
#X obj 179 96 gemhead 1;
#X msg 70 135 color 0 0 0;
#X obj 248 79 gl_ndisender;
#X connect 1 0 0 0;
#X connect 3 0 8 0;
#X connect 4 0 3 0;
#X connect 5 0 6 0;
#X connect 5 1 14 0;
#X connect 6 0 7 0;
#X connect 7 0 2 0;
#X connect 8 0 9 0;
#X connect 8 1 13 0;
#X connect 9 0 10 0;
#X connect 10 0 7 0;
#X connect 11 0 5 0;
#X connect 12 0 6 0;
#X connect 13 0 7 0;
