#N canvas 433 240 903 811 10;
#X obj 12 136 gemwin;
#X msg 6 0 create;
#X obj 171 288 square;
#X msg 11 242 destroy;
#X msg 24 24 1;
#X msg 37 217 0;
#X msg 410 94 1 0 0;
#X obj 171 262 color 0 1 0;
#X msg 349 94 0 0 1;
#X obj 346 38 metro 1000;
#X obj 309 69 delay 500;
#X obj 171 188 gemframebuffer;
#X obj 179 2 bng 15 250 50 0 empty empty empty 17 7 0 10 -262144 -1
-1;
#X text 130 -1 setup;
#X msg 188 71 format RGBA;
#X obj 171 214 translateXYZ 0 0 -4;
#X obj 117 159 gemhead;
#X msg 176 93 dimen 256 256;
#X obj 115 239 gemhead;
#X obj 310 203 gl_ndisender;
#X connect 1 0 0 0;
#X connect 1 0 4 0;
#X connect 3 0 0 0;
#X connect 4 0 9 0;
#X connect 4 0 0 0;
#X connect 5 0 0 0;
#X connect 6 0 7 1;
#X connect 7 0 2 0;
#X connect 8 0 7 1;
#X connect 9 0 6 0;
#X connect 9 0 10 0;
#X connect 10 0 8 0;
#X connect 11 0 15 0;
#X connect 11 1 19 0;
#X connect 12 0 17 0;
#X connect 12 0 14 0;
#X connect 14 0 11 0;
#X connect 15 0 7 0;
#X connect 16 0 11 0;
#X connect 17 0 0 0;
#X connect 17 0 11 0;
#X connect 17 0 19 0;
#X connect 18 0 7 0;
