#N canvas 321 541 505 360 10;
#X obj 274 59 gemwin;
#X msg 274 32 create \, 1;
#X obj 348 215 square;
#X obj 224 133 metro 1000;
#X obj 224 112 tgl 15 0 empty empty empty 17 7 0 10 -262144 -1 -1 0
1;
#X obj 348 160 translateXYZ 0 0 -4;
#X obj 348 189 color 0 1 0;
#X obj 224 154 t b b;
#X obj 224 193 delay 500;
#X msg 224 217 color 1 0 0;
#X obj 348 136 gemhead 1;
#X msg 251 174 color 0 0 0;
#X obj 283 309 ndisender;
#X msg 230 55 0;
#X msg 222 32 destroy;
#X msg 230 76 1;
#X obj 283 284 gemhead 10;
#X obj 283 261 tgl 15 0 empty empty empty 17 7 0 10 -262144 -1 -1 0
1;
#X obj 348 113 tgl 15 0 empty empty empty 17 7 0 10 -262144 -1 -1 0
1;
#X obj 370 261 tgl 15 0 empty empty empty 17 7 0 10 -262144 -1 -1 0
1;
#X obj 370 321 circle;
#X obj 370 278 gemhead 2;
#X msg 222 273 fps 60;
#X msg 222 294 fps 30;
#X msg 352 44 dimen 640 480;
#X obj 370 300 translateXYZ 2 5 -4;
#X text 221 8 Example;
#X obj 9 8 cnv 15 200 340 empty empty empty 20 12 0 14 -233017 -66577
0;
#X text 11 94 Arguments:;
#X text 13 123 Inlets:;
#X text 27 137 Inlet 1: gemlist;
#X text 16 231 Outlets:;
#X text 25 248 Outlet 1: gemlist;
#X text 14 13 [ndisender];
#X text 27 156 Inlet 1: message: fps <fps>: sets desired fps count
for ndisender, f 29;
#X connect 1 0 0 0;
#X connect 3 0 7 0;
#X connect 4 0 3 0;
#X connect 5 0 6 0;
#X connect 6 0 2 0;
#X connect 7 0 8 0;
#X connect 7 1 11 0;
#X connect 8 0 9 0;
#X connect 9 0 6 0;
#X connect 10 0 5 0;
#X connect 11 0 6 0;
#X connect 13 0 0 0;
#X connect 14 0 0 0;
#X connect 15 0 0 0;
#X connect 16 0 12 0;
#X connect 17 0 16 0;
#X connect 18 0 10 0;
#X connect 19 0 21 0;
#X connect 21 0 25 0;
#X connect 22 0 12 0;
#X connect 23 0 12 0;
#X connect 24 0 0 0;
#X connect 25 0 20 0;
